<svg width="16" height="16" viewBox="0 0 16 16" fill="none" xmlns="http://www.w3.org/2000/svg">
<path d="M8 1C6.61553 1 5.26216 1.41054 4.11101 2.17971C2.95987 2.94888 2.06266 4.04213 1.53285 5.32122C1.00303 6.6003 0.86441 8.00777 1.13451 9.36563C1.4046 10.7235 2.07129 11.9708 3.05026 12.9497C4.02922 13.9287 5.2765 14.5954 6.63437 14.8655C7.99224 15.1356 9.3997 14.997 10.6788 14.4672C11.9579 13.9373 13.0511 13.0401 13.8203 11.889C14.5895 10.7378 15 9.38447 15 8C15 6.14348 14.2625 4.36301 12.9497 3.05025C11.637 1.7375 9.85652 1 8 1V1ZM8 3.5C8.44501 3.5 8.88003 3.63196 9.25004 3.87919C9.62005 4.12643 9.90843 4.47783 10.0787 4.88896C10.249 5.3001 10.2936 5.7525 10.2068 6.18895C10.12 6.62541 9.90566 7.02632 9.59099 7.34099C9.27632 7.65566 8.87541 7.86995 8.43896 7.95677C8.0025 8.04358 7.5501 7.99903 7.13897 7.82873C6.72783 7.65843 6.37643 7.37004 6.1292 7.00003C5.88196 6.63002 5.75 6.19501 5.75 5.75C5.74934 5.45434 5.80709 5.16146 5.91993 4.88818C6.03277 4.6149 6.19848 4.3666 6.40754 4.15754C6.61661 3.94848 6.86491 3.78277 7.13819 3.66993C7.41147 3.55709 7.70434 3.49934 8 3.5V3.5ZM12 12.46C10.9035 13.4512 9.47808 13.9999 8 13.9999C6.52193 13.9999 5.0965 13.4512 4 12.46V12.17C3.98107 11.4854 4.23301 10.821 4.7011 10.321C5.1692 9.82113 5.81564 9.52608 6.5 9.5H9.5C10.1813 9.52735 10.8247 9.8207 11.2921 10.3171C11.7595 10.8135 12.0136 11.4733 12 12.155V12.46V12.46Z" fill="#FFD700"/>
</svg>
