<svg width="24" height="24" viewBox="0 0 24 24" fill="none" xmlns="http://www.w3.org/2000/svg">
<path d="M16.9066 7.90026C16.9624 7.81307 16.9945 7.71173 16.9993 7.60704C17.0042 7.50235 16.9817 7.39824 16.9343 7.30582C16.8868 7.2134 16.8162 7.13614 16.7299 7.08228C16.6436 7.02842 16.5449 6.99998 16.4443 7H7.55528C7.45479 7.00005 7.35619 7.02851 7.26999 7.08234C7.18379 7.13617 7.11321 7.21336 7.06578 7.30568C7.01835 7.39801 6.99583 7.50201 7.00063 7.60661C7.00544 7.71121 7.03737 7.8125 7.09305 7.89968L11.4442 14.7017V16.8421H9.77755V18H14.2221V16.8421H12.5554V14.7017L16.9066 7.90026V7.90026ZM15.4066 8.15789L14.2954 9.89474H9.70421L8.59308 8.15789H15.4066V8.15789Z" fill="#FFE700"/>
</svg>
