<svg width="44" height="44" viewBox="0 0 44 44" fill="none" xmlns="http://www.w3.org/2000/svg">
<path fill-rule="evenodd" clip-rule="evenodd" d="M22.973 31.2235C23.1011 31.0958 23.2027 30.944 23.272 30.777C23.3413 30.6099 23.377 30.4309 23.377 30.25C23.377 30.0691 23.3413 29.8901 23.272 29.723C23.2027 29.556 23.1011 29.4042 22.973 29.2765L15.6938 22L22.973 14.7235C23.1009 14.5957 23.2023 14.4439 23.2715 14.2769C23.3407 14.1098 23.3763 13.9308 23.3763 13.75C23.3763 13.5692 23.3407 13.3902 23.2715 13.2231C23.2023 13.0561 23.1009 12.9043 22.973 12.7765C22.8452 12.6487 22.6934 12.5472 22.5264 12.4781C22.3593 12.4089 22.1803 12.3733 21.9995 12.3733C21.8187 12.3733 21.6397 12.4089 21.4727 12.4781C21.3056 12.5472 21.1539 12.6487 21.026 12.7765L12.776 21.0265C12.648 21.1542 12.5464 21.306 12.4771 21.473C12.4077 21.6401 12.3721 21.8191 12.3721 22C12.3721 22.1809 12.4077 22.3599 12.4771 22.527C12.5464 22.694 12.648 22.8458 12.776 22.9735L21.026 31.2235C21.1538 31.3515 21.3055 31.4531 21.4725 31.5225C21.6396 31.5918 21.8187 31.6275 21.9995 31.6275C22.1804 31.6275 22.3595 31.5918 22.5265 31.5225C22.6936 31.4531 22.8453 31.3515 22.973 31.2235Z" fill="white"/>
<path fill-rule="evenodd" clip-rule="evenodd" d="M31.625 22C31.625 21.6353 31.4801 21.2856 31.2223 21.0277C30.9644 20.7699 30.6147 20.625 30.25 20.625H16.5C16.1353 20.625 15.7856 20.7699 15.5277 21.0277C15.2699 21.2856 15.125 21.6353 15.125 22C15.125 22.3647 15.2699 22.7144 15.5277 22.9723C15.7856 23.2301 16.1353 23.375 16.5 23.375H30.25C30.6147 23.375 30.9644 23.2301 31.2223 22.9723C31.4801 22.7144 31.625 22.3647 31.625 22Z" fill="white"/>
</svg>
