<svg width="6" height="7" viewBox="0 0 6 7" fill="none" xmlns="http://www.w3.org/2000/svg">
<path d="M5.33317 2.33333C5.33317 2.02692 5.27282 1.7235 5.15556 1.44041C5.0383 1.15731 4.86642 0.900088 4.64975 0.683417C4.43308 0.466747 4.17586 0.294875 3.89277 0.177614C3.60967 0.0603534 3.30626 0 2.99984 0C2.69342 0 2.39 0.0603534 2.10691 0.177614C1.82382 0.294875 1.56659 0.466747 1.34992 0.683417C1.13325 0.900088 0.961379 1.15731 0.844118 1.44041C0.726857 1.7235 0.666504 2.02692 0.666504 2.33333C0.666504 2.79567 0.803171 3.22567 1.03484 3.58833H1.03217C1.81884 4.82 2.99984 6.66667 2.99984 6.66667L4.9675 3.58833H4.96517C5.20531 3.21379 5.33302 2.77825 5.33317 2.33333ZM2.99984 3.33333C2.73462 3.33333 2.48027 3.22798 2.29273 3.04044C2.10519 2.8529 1.99984 2.59855 1.99984 2.33333C1.99984 2.06812 2.10519 1.81376 2.29273 1.62623C2.48027 1.43869 2.73462 1.33333 2.99984 1.33333C3.26505 1.33333 3.51941 1.43869 3.70694 1.62623C3.89448 1.81376 3.99984 2.06812 3.99984 2.33333C3.99984 2.59855 3.89448 2.8529 3.70694 3.04044C3.51941 3.22798 3.26505 3.33333 2.99984 3.33333Z" fill="white"/>
</svg>
