<svg width="30" height="39" viewBox="0 0 30 39" fill="none" xmlns="http://www.w3.org/2000/svg">
<path d="M15.4283 29.1653C8.86007 29.1653 3.38656 27.0981 2.14258 24.3754C4.4315 31.4846 3.03824 38.0897 15.4283 38.0897C27.8183 38.0897 26.4251 31.4846 28.714 24.3754C27.47 27.0981 21.9965 29.1653 15.4283 29.1653Z" fill="#3E4347"/>
<path d="M9.09654 17.2588C16.1433 15.288 32.336 18.2695 28.7876 25.0411C30.7367 27.2646 31.4364 29.6397 22.1406 29.4881C7.8471 32.8739 -3.94753 25.8496 1.2501 20.5435C0.000672392 17.9663 2.74942 16.6524 9.09654 17.2588Z" fill="#6F7980"/>
<path d="M15.3786 29.0897C21.6078 29.0897 26.7906 27.084 27.9866 24.4611C28.0862 24.204 28.1361 23.9468 28.2357 23.6897C28.2357 23.5354 28.2856 23.4325 28.2856 23.2782C28.2856 20.0897 22.5048 17.5182 15.4284 17.5182C8.35202 17.5182 2.57129 20.0897 2.57129 23.2782C2.57129 23.4325 2.57129 23.5354 2.62112 23.6897C2.67096 23.9468 2.77062 24.204 2.87029 24.4611C3.96664 27.084 9.14936 29.0897 15.3786 29.0897" fill="#3E4347"/>
<path d="M15.2637 29.0897C21.4612 29.0897 26.6175 27.1337 27.8074 24.576C27.8074 24.4757 27.857 24.4255 27.857 24.3252C26.8158 21.6672 21.5604 19.6611 15.2141 19.6611C8.86793 19.6611 3.61247 21.6672 2.57129 24.3252C2.62087 24.4255 2.62087 24.4757 2.62087 24.576C3.90994 27.1337 9.06625 29.0897 15.2637 29.0897Z" fill="#FBBF67"/>
<path d="M16.9802 22.2335C14.5289 22.18 11.5382 24.3222 9.52814 24.1615C6.19433 23.8938 9.62619 25.6611 11.9795 25.6611C13.5483 25.6611 14.6269 24.108 15.4604 23.4653C16.637 22.662 19.5296 22.2871 16.9802 22.2335" fill="#D33B23"/>
<path d="M9.66197 20.6274C9.01536 18.8368 5.28491 21.7714 8.46823 22.4181C8.96562 22.5175 10.2091 22.2191 9.66197 20.6274Z" fill="#FF8736"/>
<path d="M16.8736 26.248C16.0778 24.0595 11.4521 27.6904 15.4312 28.4365C16.0281 28.536 17.57 28.1878 16.8736 26.248Z" fill="#FF8736"/>
<path d="M17.7197 19.9808C16.9736 18.1902 12.3479 21.1248 16.2773 21.7714C16.8244 21.8212 18.3663 21.5227 17.7197 19.9808Z" fill="#FF8736"/>
<path d="M25.3303 21.9206C25.0319 19.9808 19.1129 21.0751 23.1915 23.1144C23.7884 23.4128 25.579 23.6615 25.3303 21.9206" fill="#FF8736"/>
<path d="M6.62836 23.6615C6.08123 22.9154 5.2854 21.9207 4.98696 22.418C4.53931 23.1144 4.39009 24.5071 4.73827 24.5568C7.22523 25.0542 7.02628 24.2584 6.62836 23.6615" fill="#89664C"/>
<path d="M20.3062 22.2688C19.4109 22.6668 18.8637 22.3683 18.4658 22.9652C17.5208 24.3082 20.7538 24.7558 21.3507 23.96C21.7983 23.4128 20.903 22.0201 20.3062 22.2688" fill="#89664C"/>
<path d="M21.052 25.6014C20.4054 25.3029 20.5546 26.2977 19.5598 25.5019C18.8635 24.9548 17.3713 26.3475 18.3661 27.2925C19.4604 28.337 19.7588 27.3423 20.2065 27.4417C21.1515 27.5909 22.7929 26.3475 21.052 25.6014" fill="#89664C"/>
<path d="M10.1105 25.8998C9.5136 25.3029 8.56855 26.9941 8.91673 27.4417C9.66282 28.4365 12.3487 28.2376 13.0451 27.4915C13.9404 26.5962 11.5529 27.2925 10.1105 25.8998Z" fill="#89664C"/>
<path d="M7.82232 25.4024C7.82232 25.4024 7.87206 25.9993 7.97154 26.248C7.32493 25.9993 7.32493 24.8553 7.32493 24.8553C7.32493 24.8553 6.87727 25.104 6.92701 25.5516C6.23066 24.9547 5.63379 25.2532 5.63379 25.2532C5.63379 25.2532 6.5291 25.7506 6.67831 26.0987C6.18092 26.1485 5.88249 26.2977 5.68353 26.6956C5.68353 26.6956 6.67831 26.1982 7.4244 26.5464C7.12597 26.7951 7.27519 27.392 7.27519 27.392C8.46893 26.1485 9.21502 27.2427 9.76215 26.9443C9.3145 26.3474 8.66789 26.248 8.66789 26.248C8.41919 25.7506 7.82232 25.4024 7.82232 25.4024" fill="#699635"/>
<path d="M13.194 20.5279C12.5971 20.4285 12.0003 20.7269 12.0003 20.7269C12.0003 20.7269 12.5474 20.9756 12.7961 21.0751C12.249 21.5227 11.2542 20.9259 11.2542 20.9259C11.2542 20.9259 11.2542 21.4232 11.6521 21.6222C10.8065 21.9206 10.707 22.617 10.707 22.617C10.707 22.617 11.6023 22.1196 11.9505 22.1693C11.7018 22.617 11.7018 22.9652 12.0003 23.3133C12.0003 23.3133 12.0997 22.2191 12.7961 21.7714C12.8458 22.1693 13.4427 22.3186 13.4427 22.3186C12.995 20.6772 14.338 20.5777 14.338 19.9808C13.6417 19.9808 13.194 20.5279 13.194 20.5279" fill="#699635"/>
<path d="M24.7829 25.0045C25.0316 24.7558 26.0761 24.6066 26.0761 24.6066C26.0761 24.6066 25.6285 24.1092 24.7332 24.3579C24.9321 23.96 24.6337 23.562 24.6337 23.562C24.6337 23.562 24.1861 24.6066 23.4897 24.6066C23.6887 24.3579 23.9374 23.8605 23.9374 23.8605C23.9374 23.8605 23.241 24.0097 22.8431 24.4573C22.8431 24.4573 22.1965 24.2584 21.5996 24.6563C21.9478 25.1537 23.0918 24.4076 23.6887 25.9993C23.6887 25.9993 24.0368 25.5019 23.8876 25.1537C24.6834 25.104 25.4295 25.9495 25.4295 25.9495C25.4295 25.5019 25.2306 25.2532 24.7829 25.0045" fill="#699635"/>
<g opacity="0.6">
<path opacity="0.6" d="M15.6814 4.6755C13.8411 2.7854 15.0845 0 15.0845 0C15.0845 0 11.2049 3.68071 13.6421 6.21741C16.4772 9.15203 15.0845 10.9426 15.0845 10.9426C15.0845 10.9426 18.5663 7.65985 15.6814 4.6755" fill="#A6AEB0"/>
<path opacity="0.6" d="M10.2095 6.36663C8.81676 5.02367 9.76181 2.98436 9.76181 2.98436C9.76181 2.98436 6.87693 5.67028 8.71728 7.51064C10.8561 9.64943 9.76181 10.9426 9.76181 10.9426C9.76181 10.9426 12.3483 8.55516 10.2095 6.36663Z" fill="#A6AEB0"/>
<path opacity="0.6" d="M21.1518 6.36663C19.7591 5.02367 20.7042 2.98436 20.7042 2.98436C20.7042 2.98436 17.8193 5.67028 19.6597 7.51064C21.7985 9.64943 20.7042 10.9426 20.7042 10.9426C20.7042 10.9426 23.2906 8.55516 21.1518 6.36663Z" fill="#A6AEB0"/>
</g>
</svg>
