<svg width="30" height="30" viewBox="0 0 30 30" fill="none" xmlns="http://www.w3.org/2000/svg">
<path d="M26.8122 3.98438C25.8278 1.50001 22.9685 0.281258 20.4372 1.26563C17.906 2.25001 16.6872 5.06251 17.6716 7.54688C18.7028 10.0313 21.5622 11.25 24.0935 10.2656C26.6247 9.28126 27.8435 6.46876 26.8122 3.98438" fill="#64892F"/>
<path d="M26.5318 4.12501C25.5943 1.78126 22.8755 0.656259 20.5318 1.59376C18.1412 2.53126 17.0162 5.15626 17.9537 7.50001C18.8912 9.84376 21.6099 10.9688 23.9537 10.0313C26.3443 9.09376 27.5162 6.42188 26.5318 4.12501" fill="#FDFFB8"/>
<path d="M20.9534 1.64063C21.094 1.50001 23.6253 1.45313 23.6722 1.73438C23.719 1.82813 23.8128 1.87501 23.8128 1.96876C23.7659 2.29688 22.4065 5.25 22.4065 5.25C22.3597 5.25 22.219 5.06251 22.1253 5.20313C22.0315 5.29688 20.7659 2.01563 20.8128 1.96876C20.9065 1.87501 20.8597 1.73438 20.9534 1.64063" fill="#CED74D"/>
<path d="M23.5791 9.9375C23.4385 10.0781 20.9072 10.125 20.8604 9.84375C20.8135 9.75 20.7197 9.70313 20.7197 9.60938C20.7666 9.28125 22.126 6.32812 22.126 6.32812C22.1729 6.32812 22.3135 6.51563 22.4072 6.375C22.501 6.28125 23.7666 9.5625 23.7197 9.60938C23.626 9.70313 23.6729 9.84375 23.5791 9.9375" fill="#CED74D"/>
<path d="M26.4854 4.50001C26.6729 4.64063 26.6729 7.07813 26.3916 7.17188C26.2979 7.21876 26.251 7.31251 26.1572 7.31251C25.7822 7.26563 22.7822 5.95313 22.7822 5.95313C22.7822 5.90626 22.9697 5.76563 22.8291 5.67188C22.7354 5.57813 26.1104 4.35938 26.1572 4.40626C26.251 4.45313 26.3916 4.40626 26.4854 4.50001" fill="#CED74D"/>
<path d="M18.0477 7.03125C17.8602 6.89062 17.8602 4.45313 18.1414 4.35938C18.2352 4.3125 18.282 4.21875 18.3758 4.21875C18.7508 4.26563 21.7508 5.57812 21.7508 5.57812C21.7508 5.625 21.5633 5.76562 21.7039 5.85938C21.7977 5.95313 18.4227 7.17187 18.3758 7.125C18.282 7.125 18.1414 7.125 18.0477 7.03125Z" fill="#CED74D"/>
<path d="M18.4228 3.84376C18.3759 3.65626 20.1572 1.87501 20.3915 2.01563C20.4853 2.06251 20.6259 2.01563 20.6728 2.06251C20.8603 2.34376 22.079 5.34376 22.079 5.34376C22.0322 5.34376 21.8447 5.34376 21.8447 5.48438C21.8915 5.62501 18.5634 4.17189 18.5634 4.12501C18.5634 4.03126 18.4228 3.93751 18.4228 3.84376" fill="#CED74D"/>
<path d="M26.2041 7.78126C26.251 7.96876 24.4697 9.70314 24.2354 9.60939C24.1416 9.56251 24.001 9.60939 23.9541 9.56251C23.7666 9.28126 22.5479 6.28126 22.5479 6.28126C22.5947 6.28126 22.7822 6.28126 22.7822 6.09376C22.7354 5.95314 26.0635 7.40626 26.0635 7.45314C26.0635 7.59376 26.1572 7.68751 26.2041 7.78126" fill="#CED74D"/>
<path d="M24.2818 1.96877C24.4693 1.92189 26.2974 3.65627 26.1568 3.89064C26.1099 3.98439 26.1568 4.07814 26.063 4.17189C25.7818 4.35939 22.688 5.53127 22.688 5.53127C22.688 5.48439 22.688 5.29689 22.5005 5.29689C22.3599 5.34377 23.8599 2.10939 23.9068 2.10939C24.0943 2.10939 24.188 2.01564 24.2818 1.96877" fill="#CED74D"/>
<path d="M20.2509 9.56251C20.0634 9.60939 18.2352 7.87501 18.3759 7.64064C18.4227 7.54689 18.3759 7.45314 18.4696 7.35939C18.7509 7.17189 21.8446 6.00002 21.8446 6.00002C21.8446 6.04689 21.8446 6.23439 22.0321 6.23439C22.1727 6.18752 20.6727 9.42189 20.6259 9.42189C20.4384 9.42189 20.3446 9.51564 20.2509 9.56251" fill="#CED74D"/>
<path d="M11.3906 4.21875C10.2187 3.04688 8.25 3.04688 7.07812 4.21875L2.8125 8.39062L3.46875 9.04687L7.73437 4.875C8.57812 4.03125 9.9375 4.03125 10.7812 4.875L20.1562 14.1094L20.8125 13.4531L11.3906 4.21875Z" fill="#D33B23"/>
<path opacity="0.8" d="M22.3593 5.8125H10.5937C12.7968 10.9219 6.14056 20.1563 13.8749 21.7031C16.2656 22.5469 16.1249 24.4688 15.3281 26.3438C14.4843 28.3125 12.5624 28.6406 12.5156 28.6875C12.4687 28.7344 12.4218 28.8281 12.4218 28.9219C12.4218 29.0156 12.4687 29.1094 12.5624 29.1094H20.3437C20.3906 29.1094 20.4374 29.0156 20.4843 28.9219C20.4843 28.8281 20.4374 28.6875 20.3906 28.6875C20.3906 28.6875 18.4218 28.3125 17.5781 26.3438C16.7812 24.5156 16.6874 22.5469 19.0312 21.7031C26.8124 20.1094 20.1562 10.875 22.3593 5.8125V5.8125ZM16.4999 21.0469C6.70306 21.0469 13.5937 11.2031 11.5781 6.1875H21.4218C19.4062 11.2031 26.2968 21.0469 16.4999 21.0469Z" fill="#6F7980"/>
<path d="M11.7755 15.3715C11.8316 14.6511 12.3103 11.2234 12.5427 9.59963C12.9795 9.43778 14.2686 9.30342 15.9311 10.0608C17.5936 10.8181 19.6871 11.0998 20.5261 11.146C20.7493 12.5314 21.2003 15.547 21.2188 16.5261C21.2419 17.7499 21.2185 20.3129 16.2541 20.3129C11.2897 20.3129 11.7053 16.2721 11.7755 15.3715Z" fill="#FBBF67"/>
<path opacity="0.8" d="M11.8136 15.1406C11.5286 18 12.0511 20.2969 16.5165 20.2969C20.2218 20.2969 21.2193 18.7031 21.2668 16.5C18.3216 17.0625 15.6614 14.5313 11.8136 15.1406" fill="#FF8736"/>
<path opacity="0.8" d="M21.1875 16.5469C21.2344 14.9062 20.7656 12.9375 20.5313 11.1094C18 11.2031 15.6563 9.37499 12.5156 9.56249C12.4688 11.3437 12 13.3594 11.8125 15.1406C15.6094 14.5312 18.2344 17.0625 21.1875 16.5469Z" fill="#FBBF67"/>
</svg>
