<svg width="12" height="12" viewBox="0 0 12 12" fill="none" xmlns="http://www.w3.org/2000/svg">
<path d="M11.4156 3.89376L7.94433 3.38926L6.39258 0.243364C6.35019 0.157232 6.28047 0.0875051 6.19433 0.0451223C5.97832 -0.0615184 5.71582 0.0273488 5.60781 0.243364L4.05605 3.38926L0.584764 3.89376C0.489061 3.90743 0.401561 3.95254 0.334568 4.0209C0.253579 4.10415 0.20895 4.21614 0.210488 4.33227C0.212026 4.4484 0.259605 4.55917 0.342772 4.64024L2.8543 7.08887L2.26094 10.5465C2.24702 10.6269 2.25592 10.7096 2.28663 10.7853C2.31733 10.8609 2.36862 10.9264 2.43466 10.9744C2.50071 11.0224 2.57887 11.0509 2.66029 11.0567C2.74171 11.0625 2.82313 11.0453 2.89531 11.0072L6.00019 9.37481L9.10508 11.0072C9.18984 11.0523 9.28828 11.0674 9.38262 11.051C9.62051 11.01 9.78047 10.7844 9.73945 10.5465L9.14609 7.08887L11.6576 4.64024C11.726 4.57325 11.7711 4.48575 11.7848 4.39004C11.8217 4.15079 11.6549 3.9293 11.4156 3.89376Z" fill="#FFE700"/>
</svg>
